<svg
  preserveAspectRatio="none"
  width="100%"
  height="100%"
  overflow="visible"
  style="display: block"
  viewBox="0 0 31 30"
  fill="none"
  xmlns="http://www.w3.org/2000/svg"
>
  <g id="lucide:play">
    <path
      id="Vector"
      d="M6.45833 6.25C6.4582 5.81012 6.578 5.37798 6.80564 4.99724C7.03328 4.61649 7.3607 4.30061 7.75485 4.0815C8.14899 3.86238 8.59589 3.74778 9.05044 3.74927C9.50498 3.75077 9.95107 3.8683 10.3437 4.09L25.8398 12.8375C26.2309 13.0571 26.5555 13.3722 26.7813 13.7513C27.0072 14.1303 27.1262 14.5601 27.1266 14.9977C27.127 15.4352 27.0087 15.8652 26.7836 16.2447C26.5584 16.6241 26.2343 16.9397 25.8437 17.16L10.3437 25.91C9.95107 26.1317 9.50498 26.2492 9.05044 26.2507C8.59589 26.2522 8.14899 26.1376 7.75485 25.9185C7.3607 25.6994 7.03328 25.3835 6.80564 25.0028C6.578 24.622 6.4582 24.1899 6.45833 23.75V6.25Z"
      fill="var(--fill-0, white)"
    />
  </g>
</svg>
