<svg width="60" height="56" viewBox="0 0 60 56" fill="none" xmlns="http://www.w3.org/2000/svg">
<g clip-path="url(#clip0_4045_1333)">
<path d="M21.9814 25.6936H25.5702L23.8319 20.2246L21.9814 25.6936Z" fill="white"/>
<path d="M30 0C13.4579 0 0 10.767 0 24.0977C0 32.7569 5.71963 40.3337 14.243 44.6063C13.6262 46.999 11.9439 53.2085 11.6636 54.5758C11.271 56.2279 12.2804 56.2279 12.8972 55.7721C13.4019 55.4303 21.1402 50.0753 24.4486 47.7965C26.243 48.0814 28.0935 48.1953 30 48.1953C46.5981 48.1953 60 37.4283 60 24.0977C60 10.767 46.5981 0 30 0ZM15.3645 30.3072C15.3645 31.7884 12.1682 31.7314 12.1682 30.3072C12.1682 28.3133 12.1682 19.6541 12.1682 19.6541H9.08411C7.28972 19.6541 7.28972 16.6348 9.08411 16.6348C9.08411 16.6348 16.3178 16.6918 18.5047 16.6918C20.4112 16.6918 20.4112 19.7681 18.5047 19.7681C16.486 19.7681 15.4206 19.7681 15.4206 19.7681V30.3072H15.3645ZM27.1963 30.706C26.4673 28.7121 26.6355 28.5982 26.6355 28.5982H20.972L20.3551 30.8199C19.6822 32.3581 16.8785 31.1048 17.4953 29.5666C18.3925 27.4588 21.1402 19.4262 21.9252 17.7172C22.2056 17.0336 22.9346 16.7487 23.6636 16.7487C24.5607 16.7487 25.4579 17.1475 25.6822 17.7172C26.243 18.9135 29.215 27.2879 30.1122 29.6236C30.729 31.2757 27.8131 32.3581 27.1963 30.763V30.706ZM38.6355 31.4466C37.1776 31.4466 33.9252 31.4466 32.4112 31.4466C30.8972 31.4466 31.1776 29.6806 31.1776 29.6806C31.1776 29.6806 31.1776 20.9074 31.1776 18.1729C31.1776 17.2045 32.0187 16.7487 32.8598 16.7487C33.7009 16.7487 34.5421 17.2045 34.5421 18.1729C34.5421 20.1668 34.5421 28.3133 34.5421 28.3133C34.5421 28.3133 37.1776 28.3133 38.6355 28.3133C40.0935 28.3133 40.0935 31.4466 38.6355 31.4466ZM48.6168 31.1617L44.5234 25.5219L43.5701 26.2625C43.5701 26.2625 43.5701 29.0539 43.5701 30.5351C43.5701 31.7884 40.3738 31.7884 40.3738 30.5351C40.3738 29.7375 40.4299 18.9135 40.3738 17.7172C40.3738 17.0336 41.215 16.6918 42 16.6918C42.785 16.6918 43.514 16.9766 43.514 17.6033C43.514 19.1984 43.514 22.1607 43.514 22.1607C43.514 22.1607 48.1121 17.4893 48.785 16.8057C49.4579 16.1221 51.5327 18.2869 50.8598 18.9705C49.6822 20.1668 46.7664 23.3571 46.7664 23.3571L51.0841 29.1679C51.9252 30.2503 49.2897 32.2441 48.5047 31.1617H48.6168Z" fill="white"/>
</g>
<defs>
<clipPath id="clip0_4045_1333">
<rect width="60" height="56" fill="white"/>
</clipPath>
</defs>
</svg>
