<svg width="285" height="36" viewBox="0 0 285 36" fill="none" xmlns="http://www.w3.org/2000/svg">
<g clip-path="url(#clip0_4566_29)">
<path d="M115.928 31.7891L114.635 29.8272H113.646L115.481 32.5228V34.4847H116.343V32.5388L118.163 29.8272H117.205L115.928 31.7891Z" fill="#0A2961"/>
<path d="M122.17 30.0505C121.835 29.8591 121.436 29.7634 120.973 29.7634C120.51 29.7634 120.111 29.8591 119.776 30.0505C119.441 30.2419 119.185 30.529 119.01 30.8799C118.834 31.2308 118.738 31.6615 118.738 32.156C118.738 32.6504 118.834 33.0651 119.01 33.416C119.185 33.7829 119.457 34.0541 119.776 34.2614C120.111 34.4528 120.51 34.5645 120.973 34.5645C121.436 34.5645 121.835 34.4688 122.17 34.2614C122.506 34.07 122.761 33.7829 122.953 33.416C123.144 33.0651 123.224 32.6345 123.224 32.14C123.224 31.6455 123.128 31.2308 122.953 30.8799C122.777 30.529 122.506 30.2419 122.17 30.0505ZM121.979 33.3841C121.739 33.6872 121.404 33.8307 120.973 33.8307C120.542 33.8307 120.191 33.6872 119.967 33.3841C119.744 33.097 119.632 32.6823 119.632 32.156C119.632 31.6296 119.744 31.2149 119.967 30.9278C120.191 30.6407 120.526 30.4971 120.973 30.4971C121.42 30.4971 121.739 30.6407 121.979 30.9278C122.218 31.2149 122.33 31.6296 122.33 32.156C122.33 32.6823 122.218 33.097 121.979 33.3841Z" fill="#0A2961"/>
<path d="M127.949 33.097L125.411 29.8272H124.772V34.4847H125.571V31.1989L128.109 34.4847H128.747V29.8272H127.949V33.097Z" fill="#0A2961"/>
<path d="M132.595 31.9167L131.86 31.7732C131.605 31.7253 131.413 31.6456 131.302 31.5498C131.19 31.4541 131.142 31.3265 131.142 31.167C131.142 30.9597 131.222 30.7842 131.397 30.6726C131.573 30.545 131.813 30.4971 132.132 30.4971C132.403 30.4971 132.659 30.529 132.882 30.6088C133.106 30.6885 133.313 30.8002 133.505 30.9597L133.776 30.3217C133.585 30.1462 133.345 30.0027 133.074 29.907C132.786 29.8113 132.483 29.7634 132.148 29.7634C131.781 29.7634 131.445 29.8272 131.174 29.9389C130.903 30.0665 130.679 30.226 130.519 30.4493C130.36 30.6726 130.28 30.9278 130.28 31.2149C130.28 31.5658 130.392 31.837 130.599 32.0443C130.807 32.2517 131.126 32.3952 131.557 32.4909L132.307 32.6345C132.579 32.6983 132.77 32.7621 132.882 32.8578C132.994 32.9375 133.042 33.0651 133.042 33.2246C133.042 33.416 132.962 33.5596 132.802 33.6712C132.643 33.7829 132.387 33.8467 132.052 33.8467C131.844 33.8467 131.653 33.8308 131.461 33.7989C131.27 33.767 131.094 33.7031 130.935 33.6393C130.775 33.5596 130.615 33.4798 130.472 33.3682L130.2 34.0381C130.424 34.2136 130.695 34.3412 131.014 34.4369C131.334 34.5326 131.669 34.5804 132.052 34.5804C132.435 34.5804 132.754 34.5166 133.026 34.405C133.297 34.2933 133.505 34.1179 133.664 33.9105C133.808 33.7031 133.888 33.4639 133.888 33.1768C133.888 32.8418 133.776 32.5707 133.569 32.3633C133.361 32.156 133.026 32.0124 132.595 31.9327V31.9167Z" fill="#0A2961"/>
<path d="M135.372 34.4847H138.517V33.8148H136.202V32.459H138.373V31.7732H136.202V30.4812H138.517V29.8272H135.372V34.4847Z" fill="#0A2961"/>
<path d="M140.847 29.8272H139.985V34.5007H140.847V29.8272Z" fill="#0A2961"/>
<path d="M148.287 30.0505C147.951 29.8591 147.552 29.7634 147.089 29.7634C146.626 29.7634 146.227 29.8591 145.892 30.0505C145.557 30.2419 145.301 30.529 145.126 30.8799C144.95 31.2308 144.854 31.6615 144.854 32.156C144.854 32.6504 144.95 33.0651 145.126 33.416C145.301 33.7829 145.573 34.0541 145.892 34.2614C146.227 34.4528 146.626 34.5645 147.089 34.5645C147.552 34.5645 147.951 34.4688 148.287 34.2614C148.622 34.07 148.877 33.7829 149.069 33.416C149.26 33.0651 149.34 32.6345 149.34 32.14C149.34 31.6455 149.245 31.2308 149.069 30.8799C148.893 30.529 148.622 30.2419 148.287 30.0505ZM148.095 33.3841C147.856 33.6872 147.52 33.8307 147.089 33.8307C146.658 33.8307 146.307 33.6872 146.084 33.3841C145.86 33.097 145.748 32.6823 145.748 32.156C145.748 31.6296 145.86 31.2149 146.084 30.9278C146.307 30.6407 146.642 30.4971 147.089 30.4971C147.536 30.4971 147.856 30.6407 148.095 30.9278C148.335 31.2149 148.446 31.6296 148.446 32.156C148.446 32.6823 148.335 33.097 148.095 33.3841Z" fill="#0A2961"/>
<path d="M154.816 29.8272H153.794L151.751 31.8848H151.735V29.8272H150.889V34.4847H151.735V32.3314H151.751L153.922 34.4847H154.975L152.565 32.0603L154.816 29.8272Z" fill="#0A2961"/>
<path d="M161.728 30.0505C161.393 29.8591 160.994 29.7634 160.531 29.7634C160.068 29.7634 159.669 29.8591 159.334 30.0505C158.998 30.2419 158.743 30.529 158.567 30.8799C158.392 31.2308 158.296 31.6615 158.296 32.156C158.296 32.6504 158.392 33.0651 158.567 33.416C158.743 33.7829 159.014 34.0541 159.334 34.2614C159.669 34.4528 160.068 34.5645 160.531 34.5645C160.994 34.5645 161.393 34.4688 161.728 34.2614C162.063 34.07 162.319 33.7829 162.51 33.416C162.702 33.0651 162.782 32.6345 162.782 32.14C162.782 31.6455 162.686 31.2308 162.51 30.8799C162.335 30.529 162.063 30.2419 161.728 30.0505ZM161.537 33.3841C161.297 33.6872 160.962 33.8307 160.531 33.8307C160.1 33.8307 159.749 33.6872 159.525 33.3841C159.302 33.097 159.19 32.6823 159.19 32.156C159.19 31.6296 159.302 31.2149 159.525 30.9278C159.749 30.6407 160.084 30.4971 160.531 30.4971C160.978 30.4971 161.297 30.6407 161.537 30.9278C161.776 31.2149 161.888 31.6296 161.888 32.156C161.888 32.6823 161.776 33.097 161.537 33.3841Z" fill="#0A2961"/>
<path d="M167.235 32.5866C167.124 32.5228 166.996 32.4909 166.868 32.475C166.996 32.4431 167.14 32.4431 167.251 32.3952C167.491 32.2836 167.666 32.1241 167.794 31.9327C167.922 31.7253 167.986 31.486 167.986 31.1989C167.986 30.7683 167.842 30.4333 167.571 30.1781C167.283 29.9389 166.9 29.8113 166.373 29.8113H164.33V34.4847H165.192V32.5866H165.926C166.102 32.5866 166.262 32.6185 166.373 32.6664C166.501 32.7142 166.597 32.8099 166.661 32.9694L167.347 34.4847H168.289L167.603 33.0173C167.507 32.8259 167.395 32.6664 167.251 32.5707L167.235 32.5866ZM166.23 31.9646H165.176V30.4812H166.23C166.533 30.4812 166.757 30.545 166.916 30.6726C167.076 30.8002 167.156 30.9756 167.156 31.2149C167.156 31.4541 167.076 31.6455 166.916 31.7732C166.757 31.9008 166.533 31.9646 166.23 31.9646Z" fill="#0A2961"/>
<path d="M169.056 30.529H170.604V34.4847H171.466V30.529H172.999V29.8272H169.056V30.529Z" fill="#0A2961"/>
<path d="M177.516 31.7732H175.121V29.8272H174.275V34.4847H175.121V32.475H177.516V34.4847H178.378V29.8272H177.516V31.7732Z" fill="#0A2961"/>
<path d="M183.343 30.0505C183.008 29.8591 182.609 29.7634 182.146 29.7634C181.683 29.7634 181.284 29.8591 180.949 30.0505C180.614 30.2419 180.358 30.529 180.183 30.8799C180.007 31.2308 179.911 31.6615 179.911 32.156C179.911 32.6504 180.007 33.0651 180.183 33.416C180.358 33.7829 180.63 34.0541 180.949 34.2614C181.284 34.4528 181.683 34.5645 182.146 34.5645C182.609 34.5645 183.008 34.4688 183.343 34.2614C183.679 34.07 183.934 33.7829 184.126 33.416C184.317 33.0651 184.397 32.6345 184.397 32.14C184.397 31.6455 184.301 31.2308 184.126 30.8799C183.95 30.529 183.679 30.2419 183.343 30.0505ZM183.152 33.3841C182.912 33.6872 182.577 33.8307 182.146 33.8307C181.715 33.8307 181.364 33.6872 181.14 33.3841C180.917 33.097 180.805 32.6823 180.805 32.156C180.805 31.6296 180.917 31.2149 181.14 30.9278C181.364 30.6407 181.699 30.4971 182.146 30.4971C182.593 30.4971 182.912 30.6407 183.152 30.9278C183.391 31.2149 183.503 31.6296 183.503 32.156C183.503 32.6823 183.391 33.097 183.152 33.3841Z" fill="#0A2961"/>
<path d="M188.021 29.8272H185.945V34.5007H186.807V32.6185H188.021C188.531 32.6185 188.931 32.4909 189.186 32.2357C189.457 31.9805 189.585 31.6456 189.585 31.2149C189.585 30.7842 189.441 30.4493 189.186 30.1941C188.915 29.9548 188.531 29.8272 188.021 29.8272ZM188.563 31.7572C188.42 31.8848 188.212 31.9486 187.925 31.9486H186.807V30.4971H187.925C188.212 30.4971 188.42 30.5609 188.563 30.6885C188.707 30.8161 188.771 30.9916 188.771 31.2149C188.771 31.4382 188.707 31.6296 188.563 31.7413V31.7572Z" fill="#0A2961"/>
<path d="M191.021 34.4847H194.166V33.8148H191.852V32.459H194.023V31.7732H191.852V30.4812H194.166V29.8272H191.021V34.4847Z" fill="#0A2961"/>
<path d="M198.684 30.0984C198.317 29.9229 197.87 29.8272 197.327 29.8272H195.635V34.5007H197.327C197.87 34.5007 198.317 34.405 198.684 34.2295C199.051 34.0381 199.338 33.7829 199.53 33.432C199.721 33.0811 199.817 32.6664 199.817 32.1719C199.817 31.6775 199.721 31.2627 199.53 30.9118C199.338 30.5609 199.067 30.3057 198.684 30.1143V30.0984ZM198.54 33.3841C198.269 33.6553 197.854 33.7829 197.279 33.7829H196.497V30.529H197.279C197.838 30.529 198.269 30.6566 198.54 30.9278C198.812 31.1989 198.955 31.5977 198.955 32.156C198.955 32.7142 198.812 33.113 198.54 33.3841Z" fill="#0A2961"/>
<path d="M202.213 29.8272H201.351V34.5007H202.213V29.8272Z" fill="#0A2961"/>
<path d="M206.092 30.5131C206.331 30.5131 206.555 30.545 206.746 30.6247C206.938 30.7045 207.145 30.8161 207.353 30.9916L207.624 30.3217C207.433 30.1462 207.209 30.0027 206.938 29.907C206.682 29.8113 206.379 29.7634 206.06 29.7634C205.581 29.7634 205.15 29.8591 204.815 30.0505C204.463 30.2419 204.208 30.529 204.017 30.8799C203.825 31.2308 203.745 31.6615 203.745 32.156C203.745 32.6504 203.841 33.0651 204.017 33.432C204.208 33.7988 204.463 34.07 204.815 34.2614C205.166 34.4528 205.581 34.5485 206.06 34.5485C206.395 34.5485 206.682 34.5007 206.938 34.405C207.193 34.3093 207.433 34.1657 207.624 33.9903L207.353 33.3203C207.145 33.4958 206.938 33.6074 206.746 33.6872C206.555 33.767 206.331 33.7989 206.092 33.7989C205.613 33.7989 205.262 33.6553 205.006 33.3682C204.751 33.0811 204.639 32.6823 204.639 32.156C204.639 31.6296 204.767 31.2308 205.006 30.9437C205.262 30.6566 205.613 30.5131 206.092 30.5131Z" fill="#0A2961"/>
<path d="M213.77 30.5131C214.009 30.5131 214.232 30.545 214.424 30.6247C214.616 30.7045 214.823 30.8161 215.031 30.9916L215.302 30.3217C215.11 30.1462 214.887 30.0027 214.616 29.907C214.36 29.8113 214.057 29.7634 213.738 29.7634C213.259 29.7634 212.828 29.8591 212.492 30.0505C212.141 30.2419 211.886 30.529 211.694 30.8799C211.503 31.2308 211.423 31.6615 211.423 32.156C211.423 32.6504 211.519 33.0651 211.694 33.432C211.886 33.7988 212.141 34.07 212.492 34.2614C212.844 34.4528 213.259 34.5485 213.738 34.5485C214.073 34.5485 214.36 34.5007 214.616 34.405C214.871 34.3093 215.11 34.1657 215.302 33.9903L215.031 33.3203C214.823 33.4958 214.616 33.6074 214.424 33.6872C214.232 33.767 214.009 33.7989 213.77 33.7989C213.291 33.7989 212.939 33.6553 212.684 33.3682C212.429 33.0811 212.317 32.6823 212.317 32.156C212.317 31.6296 212.445 31.2308 212.684 30.9437C212.939 30.6566 213.291 30.5131 213.77 30.5131Z" fill="#0A2961"/>
<path d="M217.634 29.8272H216.771V34.4847H219.837V33.767H217.634V29.8272Z" fill="#0A2961"/>
<path d="M222.008 29.8272H221.146V34.5007H222.008V29.8272Z" fill="#0A2961"/>
<path d="M226.876 33.097L224.338 29.8272H223.699V34.4847H224.497V31.1989L227.036 34.4847H227.674V29.8272H226.876V33.097Z" fill="#0A2961"/>
<path d="M230.228 29.8272H229.366V34.5007H230.228V29.8272Z" fill="#0A2961"/>
<path d="M234.107 30.5131C234.347 30.5131 234.57 30.545 234.762 30.6247C234.953 30.7045 235.161 30.8161 235.369 30.9916L235.64 30.3217C235.448 30.1462 235.225 30.0027 234.953 29.907C234.682 29.8113 234.395 29.7634 234.075 29.7634C233.597 29.7634 233.166 29.8591 232.83 30.0505C232.479 30.2419 232.224 30.529 232.032 30.8799C231.841 31.2308 231.761 31.6615 231.761 32.156C231.761 32.6504 231.857 33.0651 232.032 33.432C232.224 33.7988 232.479 34.07 232.83 34.2614C233.182 34.4528 233.597 34.5485 234.075 34.5485C234.411 34.5485 234.698 34.5007 234.953 34.405C235.209 34.3093 235.448 34.1657 235.64 33.9903L235.369 33.3203C235.161 33.4958 234.953 33.6074 234.762 33.6872C234.57 33.767 234.347 33.7989 234.107 33.7989C233.628 33.7989 233.277 33.6553 233.022 33.3682C232.766 33.0811 232.655 32.6823 232.655 32.156C232.655 31.6296 232.782 31.2308 233.022 30.9437C233.277 30.6566 233.628 30.5131 234.107 30.5131Z" fill="#0A2961"/>
<path d="M78.8128 8.98006H75.7158V10.8622H78.8128V16.3491H81.7341V1.8662H78.8128V4.40231H75.7158V6.25255H78.8128V8.98006Z" fill="#0A2961"/>
<path d="M71.118 15.0572H68.1807V20.1294C68.1807 20.7833 68.3403 21.2619 68.6755 21.549C68.9948 21.852 69.5535 21.9956 70.3198 21.9956H81.9254V20.1134H71.1499V15.0412L71.118 15.0572Z" fill="#0A2961"/>
<path d="M72.2676 12.537C72.9701 12.2499 73.5767 11.8511 74.1035 11.3407C74.6143 10.8463 75.0294 10.2561 75.3327 9.57023C75.636 8.88436 75.7797 8.15065 75.7797 7.38503C75.7797 6.61941 75.636 5.88569 75.3327 5.19983C75.0294 4.51396 74.6303 3.90785 74.1035 3.39743C73.5767 2.91892 72.9701 2.52016 72.2676 2.23306C71.5812 1.94595 70.8309 1.78645 70.0327 1.78645C69.2345 1.78645 68.5002 1.93 67.7978 2.23306C67.0954 2.52016 66.4888 2.91892 65.978 3.39743C65.4511 3.90785 65.0361 4.51396 64.7487 5.19983C64.4614 5.88569 64.3018 6.61941 64.3018 7.38503C64.3018 8.15065 64.4454 8.88436 64.7487 9.57023C65.0361 10.2561 65.4511 10.8463 65.978 11.3407C66.4888 11.8511 67.0954 12.2499 67.7978 12.537C68.5002 12.8241 69.2505 12.9677 70.0327 12.9677C70.8149 12.9677 71.5812 12.8241 72.2676 12.537ZM67.9574 9.98494C67.6861 9.64998 67.4785 9.26717 67.3189 8.82056C67.1752 8.37395 67.0954 7.89544 67.0954 7.38503C67.0954 6.87462 67.1752 6.3961 67.3189 5.96544C67.4626 5.53478 67.6861 5.15198 67.9574 4.83297C68.2129 4.49801 68.5162 4.2428 68.8674 4.06735C69.2186 3.8919 69.6017 3.79619 70.0168 3.79619C70.4318 3.79619 70.815 3.8919 71.1662 4.06735C71.5333 4.2428 71.8366 4.49801 72.092 4.83297C72.3634 5.15198 72.571 5.53478 72.7306 5.96544C72.8743 6.3961 72.9541 6.87462 72.9541 7.38503C72.9541 7.89544 72.8743 8.37395 72.7306 8.82056C72.5869 9.26717 72.3634 9.64998 72.092 9.98494C71.8366 10.3039 71.5174 10.5592 71.1662 10.7506C70.799 10.942 70.4159 11.0377 70.0168 11.0377C69.6177 11.0377 69.2345 10.942 68.8674 10.7506C68.5162 10.5592 68.2129 10.3039 67.9574 9.98494Z" fill="#0A2961"/>
<path d="M91.9195 11.8671C91.2011 10.5432 90.8339 8.90031 90.8339 6.93842V2.39256H87.8966V6.93842C87.8966 8.90031 87.5454 10.5432 86.827 11.8671C86.1246 13.191 84.9912 14.1958 83.4268 14.9136L84.624 16.381C85.2785 16.2056 85.8692 15.9344 86.396 15.5995C86.9228 15.2645 87.3858 14.8817 87.7849 14.451C88.1839 14.0523 88.5032 13.6216 88.7746 13.175C89.046 12.7444 89.2376 12.3137 89.3812 11.9149C89.5089 12.3137 89.7005 12.7444 89.9559 13.175C90.2113 13.6057 90.5625 14.0363 90.9616 14.451C91.3607 14.8658 91.8077 15.2486 92.3505 15.5995C92.8773 15.9344 93.4679 16.2056 94.1224 16.381L95.3197 14.9136C93.7872 14.2118 92.6697 13.191 91.9354 11.8671H91.9195Z" fill="#0A2961"/>
<path d="M95.8782 7.75189H92.7334V9.63403H95.8782V21.9158H98.624V1.9619H95.8782V7.75189Z" fill="#0A2961"/>
<path d="M102.998 1.8662H100.252V22.0115H102.998V1.8662Z" fill="#0A2961"/>
<path d="M116.2 13.7333C117.014 13.5897 117.764 13.3345 118.466 12.9836C119.169 12.6327 119.759 12.202 120.286 11.6757C120.765 11.1812 121.148 10.607 121.436 9.95304C121.723 9.29907 121.867 8.62916 121.867 7.91139C121.867 7.09792 121.675 6.31635 121.308 5.58263C120.941 4.84892 120.446 4.22685 119.823 3.70049C119.153 3.17413 118.403 2.74347 117.541 2.44041C116.678 2.1214 115.769 1.9619 114.763 1.9619C113.757 1.9619 112.831 2.1214 111.969 2.44041C111.107 2.75942 110.357 3.17413 109.718 3.70049C109.08 4.22685 108.585 4.86487 108.218 5.58263C107.851 6.31635 107.675 7.08197 107.675 7.91139C107.675 8.61321 107.819 9.29907 108.074 9.95304C108.345 10.607 108.745 11.1812 109.255 11.6757C109.734 12.1861 110.325 12.6168 111.011 12.9836C111.698 13.3345 112.448 13.5897 113.262 13.7492V18.0718H105.137V19.9539H124.389V18.0718H116.184V13.7492L116.2 13.7333ZM113.15 11.564C112.656 11.3407 112.225 11.0536 111.873 10.6868C111.49 10.3358 111.203 9.92114 110.995 9.45858C110.788 8.98006 110.692 8.46965 110.692 7.91139C110.692 7.35313 110.788 6.84271 110.995 6.3642C111.203 5.86974 111.49 5.45503 111.873 5.08817C112.241 4.73726 112.656 4.46611 113.15 4.2428C113.645 4.0195 114.188 3.90784 114.763 3.90784C115.338 3.90784 115.88 4.0195 116.375 4.2428C116.87 4.46611 117.301 4.73726 117.668 5.08817C118.035 5.45503 118.307 5.88569 118.514 6.3642C118.722 6.85866 118.818 7.36908 118.818 7.91139C118.818 8.4537 118.722 8.98006 118.514 9.45858C118.307 9.93709 118.035 10.3518 117.668 10.6868C117.301 11.0536 116.87 11.3407 116.375 11.564C115.88 11.7873 115.338 11.899 114.763 11.899C114.188 11.899 113.629 11.7873 113.15 11.564Z" fill="#0A2961"/>
<path d="M143.897 1.8662H141.151V22.0115H143.897V1.8662Z" fill="#0A2961"/>
<path d="M136.793 8.05494H134.605V9.92114H136.793V21.9158H139.522V1.9619H136.793V8.05494Z" fill="#0A2961"/>
<path d="M134.845 4.46611C134.845 3.79619 134.685 3.33363 134.35 3.04652C134.015 2.75942 133.488 2.63181 132.738 2.63181H125.921V4.48206H131.86C131.86 5.69429 131.716 6.84271 131.429 7.94329H126.193V9.71378H130.854C130.28 11.1174 129.513 12.3137 128.555 13.3026C127.598 14.2915 126.512 15.0093 125.299 15.4719L126.48 16.8915C127.646 16.4927 128.651 15.9823 129.513 15.3443C130.375 14.7062 131.126 14.0044 131.764 13.2229C132.387 12.4572 132.882 11.6438 133.281 10.8144C133.68 9.98494 133.983 9.15552 134.238 8.358C134.462 7.57643 134.622 6.84271 134.717 6.1728C134.813 5.50288 134.861 4.92867 134.861 4.46611H134.845Z" fill="#0A2961"/>
<path d="M164.138 1.8662H161.201V22.0115H164.138V1.8662Z" fill="#0A2961"/>
<path d="M158.088 6.89056C157.769 6.09305 157.322 5.37528 156.747 4.76916C156.173 4.179 155.502 3.71644 154.736 3.36553C153.97 3.01462 153.156 2.83917 152.294 2.83917C151.432 2.83917 150.633 3.01462 149.867 3.36553C149.101 3.71644 148.43 4.179 147.872 4.76916C147.297 5.39123 146.85 6.09305 146.531 6.89056C146.211 7.68808 146.052 8.5494 146.052 9.47452C146.052 10.3996 146.211 11.261 146.531 12.0744C146.85 12.8879 147.313 13.5897 147.872 14.1799C148.43 14.786 149.101 15.2645 149.867 15.5995C150.633 15.9504 151.447 16.1258 152.294 16.1258C153.14 16.1258 153.97 15.9504 154.736 15.5995C155.502 15.2486 156.173 14.7701 156.747 14.1799C157.322 13.5897 157.769 12.8879 158.088 12.0744C158.408 11.261 158.583 10.3996 158.583 9.47452C158.583 8.5494 158.424 7.68808 158.088 6.89056ZM155.375 11.2131C155.199 11.7554 154.975 12.218 154.704 12.6167C154.385 13.0315 154.018 13.3505 153.619 13.5738C153.219 13.813 152.772 13.9247 152.31 13.9247C151.847 13.9247 151.4 13.813 151.001 13.5738C150.585 13.3345 150.25 13.0155 149.963 12.6167C149.66 12.218 149.42 11.7554 149.244 11.2131C149.069 10.6708 148.989 10.0966 148.989 9.47452C148.989 8.85246 149.069 8.2942 149.244 7.75188C149.42 7.20957 149.66 6.73106 149.963 6.3323C150.25 5.91759 150.601 5.59858 151.001 5.37528C151.4 5.13602 151.847 5.02437 152.31 5.02437C152.772 5.02437 153.219 5.13602 153.619 5.37528C154.034 5.61453 154.385 5.93354 154.704 6.3323C154.975 6.73106 155.199 7.20957 155.375 7.75188C155.55 8.2942 155.63 8.86841 155.63 9.47452C155.63 10.0806 155.55 10.6708 155.375 11.2131Z" fill="#0A2961"/>
<path d="M176.91 7.65618H181.236V12.9836H184.126V1.8662H181.236V5.80594H176.91V7.65618Z" fill="#0A2961"/>
<path d="M169.726 8.50155C169.295 9.04386 168.768 9.52238 168.146 9.95304C167.507 10.3677 166.789 10.7665 165.975 11.1015L167.172 12.5529C167.89 12.3775 168.561 12.1223 169.151 11.7873C169.742 11.4524 170.269 11.0696 170.7 10.6389C171.147 10.2401 171.53 9.80948 171.833 9.37882C172.137 8.94816 172.36 8.5175 172.52 8.11874C172.647 8.50155 172.839 8.90031 173.11 9.31502C173.382 9.72973 173.717 10.1285 174.132 10.5272C174.531 10.9101 175.01 11.261 175.553 11.5959C176.096 11.9309 176.686 12.202 177.341 12.3934L178.602 10.8941C177.101 10.2242 175.968 9.37882 175.186 8.34205C174.403 7.30527 174.004 5.91759 173.972 4.16305H177.979V2.31281H167.012V4.16305H171.019C171.019 5.08817 170.875 5.90164 170.652 6.60346C170.428 7.30527 170.109 7.94329 169.694 8.50155H169.726Z" fill="#0A2961"/>
<path d="M177.947 22.6655C178.65 22.6655 179.352 22.5698 180.087 22.3624C180.821 22.1551 181.491 21.868 182.114 21.5171C182.705 21.1183 183.184 20.6557 183.583 20.0975C183.966 19.5392 184.157 18.9012 184.157 18.1994C184.157 17.4497 183.95 16.7957 183.551 16.2375C183.152 15.6792 182.641 15.2167 182.034 14.8339C181.412 14.467 180.741 14.1958 180.023 14.0204C179.304 13.8449 178.618 13.7492 177.963 13.7492C177.309 13.7492 176.591 13.8449 175.856 14.0523C175.122 14.2596 174.451 14.5467 173.845 14.8977C173.222 15.2964 172.727 15.759 172.344 16.3172C171.961 16.8755 171.77 17.4976 171.77 18.1994C171.77 18.9012 171.961 19.5392 172.344 20.0815C172.727 20.6398 173.222 21.1023 173.845 21.5011C174.451 21.8839 175.122 22.171 175.856 22.3784C176.591 22.5857 177.293 22.6814 177.963 22.6814L177.947 22.6655ZM174.962 19.1883C174.787 18.8693 174.691 18.5343 174.691 18.1834C174.691 17.8325 174.787 17.4976 174.962 17.1945C175.138 16.8755 175.377 16.6043 175.681 16.3651C176 16.1258 176.351 15.9185 176.734 15.759C177.117 15.5995 177.516 15.5197 177.947 15.5197C178.379 15.5197 178.81 15.5835 179.193 15.7271C179.592 15.8706 179.927 16.062 180.23 16.3013C180.55 16.5565 180.789 16.8436 180.981 17.1786C181.156 17.4976 181.252 17.8325 181.252 18.1834C181.252 18.5343 181.156 18.8693 180.981 19.1883C180.805 19.5073 180.55 19.7944 180.23 20.0337C179.927 20.2729 179.576 20.4803 179.193 20.6398C178.794 20.7993 178.379 20.879 177.947 20.879C177.516 20.879 177.117 20.7993 176.734 20.6398C176.351 20.4803 176 20.2889 175.681 20.0337C175.377 19.7944 175.138 19.5073 174.962 19.1883Z" fill="#0A2961"/>
<path d="M194.789 12.9198C195.443 12.6646 196.018 12.3296 196.529 11.9149C197.008 11.5002 197.391 11.0217 197.678 10.4634C197.966 9.90519 198.109 9.29907 198.109 8.64511C198.109 8.3899 198.077 8.11874 198.013 7.84759H201.047V9.85733H197.95V11.7076H201.047V13.2707H203.952V1.8981H201.047V5.99734H197.95V7.56048C197.71 6.74701 197.215 5.99734 196.481 5.32743H198.476V3.47718H194.262V1.43554H191.325V3.44528H186.52V5.29553H188.834C188.323 5.72619 187.924 6.2366 187.637 6.79486C187.35 7.35313 187.206 7.97519 187.206 8.64511C187.206 9.31502 187.35 9.90519 187.637 10.4634C187.924 11.0217 188.323 11.5002 188.834 11.9149C189.313 12.3296 189.888 12.6646 190.558 12.9198C191.229 13.175 191.931 13.2867 192.682 13.2867C193.432 13.2867 194.15 13.1591 194.805 12.9198H194.789ZM190 8.66106C190 8.2623 190.079 7.89544 190.223 7.56048C190.367 7.22552 190.558 6.92246 190.798 6.68321C191.021 6.44395 191.293 6.25255 191.628 6.109C191.947 5.96544 192.298 5.90164 192.682 5.90164C193.4 5.90164 194.022 6.1728 194.533 6.69916C195.044 7.22552 195.3 7.87949 195.3 8.66106C195.3 9.44262 195.044 10.0647 194.533 10.5911C194.022 11.1174 193.4 11.3886 192.682 11.3886C191.963 11.3886 191.309 11.1174 190.798 10.5911C190.271 10.0647 190.016 9.42667 190.016 8.66106H190Z" fill="#0A2961"/>
<path d="M203.362 16.4767C202.947 15.9185 202.452 15.4559 201.845 15.0891C201.207 14.7541 200.536 14.4989 199.802 14.2915C199.084 14.1001 198.397 14.0044 197.759 14.0044C197.088 14.0044 196.402 14.1001 195.667 14.3075C194.949 14.5148 194.263 14.786 193.656 15.1529C193.049 15.5516 192.555 16.0142 192.155 16.5405C191.756 17.0829 191.549 17.689 191.549 18.3908C191.549 19.1245 191.756 19.7625 192.155 20.2889C192.571 20.8152 193.081 21.2619 193.72 21.6287C194.327 21.9796 194.997 22.2348 195.715 22.4103C196.434 22.5857 197.12 22.6655 197.759 22.6655C198.429 22.6655 199.132 22.5698 199.85 22.3943C200.568 22.2189 201.239 21.9477 201.861 21.5809C202.468 21.1981 202.963 20.7514 203.362 20.2251C203.761 19.6987 203.969 19.0926 203.969 18.3908C203.969 17.689 203.761 17.035 203.362 16.4767ZM200.792 19.3319C200.616 19.619 200.377 19.8901 200.057 20.1134C199.754 20.3367 199.403 20.5122 199.004 20.6398C198.605 20.7674 198.19 20.8152 197.775 20.8152C197.36 20.8152 196.945 20.7514 196.545 20.6398C196.146 20.5122 195.795 20.3527 195.492 20.1134C195.189 19.8901 194.949 19.619 194.774 19.3319C194.598 19.0448 194.518 18.7257 194.518 18.3908C194.518 18.0718 194.598 17.7687 194.774 17.4497C194.949 17.1467 195.189 16.8596 195.492 16.6203C195.795 16.397 196.146 16.2056 196.545 16.062C196.945 15.9185 197.36 15.8547 197.775 15.8547C198.222 15.8547 198.653 15.9185 199.036 16.062C199.435 16.2056 199.786 16.397 200.105 16.6203C200.393 16.8436 200.616 17.1148 200.792 17.4338C200.967 17.7528 201.047 18.0718 201.047 18.3908C201.047 18.7257 200.967 19.0448 200.792 19.3319Z" fill="#0A2961"/>
<path d="M223.923 22.0115V1.8662H221.001V16.1099C220.634 16.2853 220.251 16.4289 219.852 16.5405C219.437 16.6522 219.054 16.716 218.671 16.7479C218.303 16.8117 217.968 16.8436 217.649 16.8436H214.392V13.3824C215.031 13.2229 215.606 12.9677 216.132 12.6167C216.659 12.2818 217.122 11.8671 217.521 11.3886C217.92 10.926 218.224 10.3996 218.431 9.80948C218.639 9.23527 218.75 8.6132 218.75 7.95924C218.75 7.17767 218.591 6.44395 218.287 5.75809C217.984 5.07222 217.553 4.48206 217.026 3.97165C216.5 3.49313 215.877 3.09437 215.175 2.80727C214.472 2.52016 213.706 2.36066 212.892 2.36066C212.078 2.36066 211.311 2.50421 210.593 2.80727C209.875 3.09437 209.252 3.49313 208.725 3.97165C208.198 4.48206 207.783 5.08817 207.48 5.75809C207.177 6.44395 207.033 7.16172 207.033 7.95924C207.033 8.6132 207.145 9.21932 207.368 9.80948C207.592 10.3996 207.895 10.926 208.31 11.3886C208.709 11.883 209.172 12.3137 209.699 12.6487C210.242 12.9836 210.832 13.2388 211.503 13.3824V16.8276H206.027V18.7098H216.787C217.234 18.7098 217.697 18.6779 218.128 18.6141C218.575 18.5503 219.006 18.4705 219.405 18.3429C219.804 18.2313 220.139 18.1196 220.427 18.008C220.714 17.8804 220.921 17.7687 221.033 17.6411V22.0115H223.955H223.923ZM212.876 11.5481C212.477 11.5481 212.094 11.4524 211.742 11.2769C211.391 11.1015 211.088 10.8463 210.816 10.5113C210.529 10.1763 210.306 9.79353 210.162 9.36287C210.018 8.93221 209.938 8.4537 209.938 7.95924C209.938 7.46478 210.018 6.97032 210.162 6.53966C210.306 6.109 210.529 5.72619 210.816 5.39123C211.088 5.07222 211.391 4.81702 211.742 4.64156C212.094 4.45016 212.461 4.35445 212.876 4.35445C213.259 4.35445 213.626 4.45016 213.993 4.64156C214.36 4.83297 214.68 5.08817 214.967 5.39123C215.222 5.72619 215.43 6.109 215.574 6.53966C215.717 6.97032 215.797 7.44883 215.797 7.95924C215.797 8.46965 215.717 8.93221 215.574 9.36287C215.43 9.79353 215.222 10.1923 214.967 10.5113C214.68 10.8463 214.36 11.1015 213.993 11.2769C213.626 11.4524 213.259 11.5481 212.876 11.5481Z" fill="#0A2961"/>
<path d="M235.353 8.67701C235.353 9.09172 235.353 9.58618 235.353 10.1125C235.353 10.6389 235.321 11.1493 235.289 11.6438C235.257 12.1223 235.21 12.5689 235.146 12.9517C235.082 13.3505 235.002 13.6057 234.922 13.7492H237.588C237.732 13.5259 237.86 13.191 237.955 12.7444C238.051 12.2977 238.131 11.8192 238.195 11.2769C238.227 10.7665 238.243 10.2401 238.259 9.72973C238.259 9.20337 238.275 8.77271 238.275 8.40585V4.51396C238.275 3.84404 238.099 3.36553 237.764 3.07842C237.429 2.79132 236.87 2.63181 236.104 2.63181H227.403V4.48206H235.337V8.66106L235.353 8.67701Z" fill="#0A2961"/>
<path d="M243.542 1.8662H240.605V16.1099C240.238 16.2853 239.855 16.4289 239.455 16.5405C239.056 16.6522 238.657 16.716 238.306 16.7479C237.923 16.8117 237.588 16.8436 237.268 16.8436H232.751V10.7346H229.829V16.8436H225.998V18.7257H236.374C236.805 18.7257 237.252 18.6938 237.715 18.63C238.162 18.5662 238.593 18.4865 239.008 18.3589C239.392 18.2472 239.711 18.1356 239.998 18.0239C240.286 17.8963 240.493 17.7847 240.605 17.6571V22.0275H243.542V9.55428C243.829 9.80948 244.165 9.93709 244.532 9.93709H246.623V8.08684H243.542V1.8662Z" fill="#0A2961"/>
<path d="M249.752 11.899C250.279 12.3934 250.901 12.7922 251.619 13.0953C252.338 13.3983 253.104 13.5419 253.918 13.5419C254.732 13.5419 255.499 13.3983 256.201 13.0953C256.903 12.7922 257.526 12.3934 258.053 11.899C258.58 11.4045 258.995 10.8144 259.314 10.1285C259.617 9.44262 259.777 8.72486 259.777 7.95924C259.777 7.19362 259.617 6.44395 259.314 5.75809C259.011 5.07222 258.58 4.48206 258.053 3.97164C257.526 3.49313 256.903 3.09437 256.201 2.80727C255.499 2.52016 254.732 2.36066 253.918 2.36066C253.104 2.36066 252.338 2.50421 251.619 2.80727C250.901 3.09437 250.279 3.49313 249.752 3.97164C249.225 4.48206 248.81 5.08817 248.507 5.75809C248.203 6.44395 248.06 7.16172 248.06 7.95924C248.06 8.75676 248.203 9.45857 248.507 10.1285C248.81 10.8144 249.225 11.3886 249.752 11.899ZM251.204 6.53966C251.348 6.10899 251.572 5.72619 251.859 5.39123C252.13 5.07222 252.434 4.81701 252.785 4.64156C253.136 4.45016 253.503 4.35445 253.918 4.35445C254.301 4.35445 254.669 4.45016 255.036 4.64156C255.403 4.83297 255.722 5.08817 256.009 5.39123C256.265 5.72619 256.472 6.10899 256.616 6.53966C256.76 6.97031 256.84 7.44883 256.84 7.95924C256.84 8.46965 256.76 8.93221 256.616 9.36287C256.472 9.79353 256.265 10.1923 256.009 10.5113C255.722 10.8463 255.403 11.1015 255.036 11.2769C254.669 11.4524 254.301 11.5481 253.918 11.5481C253.519 11.5481 253.136 11.4524 252.785 11.2769C252.434 11.1015 252.13 10.8463 251.859 10.5113C251.572 10.1763 251.348 9.79353 251.204 9.36287C251.061 8.93221 250.981 8.4537 250.981 7.95924C250.981 7.46478 251.061 6.97031 251.204 6.53966Z" fill="#0A2961"/>
<path d="M262.06 15.8068C261.693 15.9823 261.31 16.1258 260.911 16.2215C260.495 16.3172 260.112 16.397 259.729 16.4289C259.362 16.4927 259.027 16.5246 258.708 16.5246H247.038V18.3748H257.798C258.245 18.3748 258.708 18.3429 259.139 18.2791C259.586 18.2153 260.017 18.1356 260.416 18.008C260.815 17.8963 261.15 17.7847 261.437 17.673C261.725 17.5454 261.932 17.4338 262.044 17.3062V21.9956H264.965V1.8662H262.044V15.8068H262.06Z" fill="#0A2961"/>
<path d="M278.279 15.6473H281.903V16.9712H284.84V1.85025H281.903V13.7811H278.279V15.6473Z" fill="#0A2961"/>
<path d="M272.006 15.2486H274.943V12.8401H280.722V10.9739H266.897V12.8401H272.006V15.2486Z" fill="#0A2961"/>
<path d="M269.643 8.88436C270.154 9.28312 270.76 9.57023 271.479 9.79353C272.181 10.0009 272.948 10.1125 273.746 10.1125C274.544 10.1125 275.294 10.0009 276.013 9.79353C276.715 9.58618 277.338 9.28312 277.864 8.88436C278.375 8.50155 278.79 8.07089 279.094 7.57643C279.397 7.08197 279.541 6.52371 279.541 5.91759C279.541 5.35933 279.397 4.81702 279.094 4.3066C278.79 3.79619 278.375 3.34958 277.864 2.96677C277.338 2.58396 276.715 2.28091 276.013 2.0576C275.294 1.81834 274.544 1.70669 273.746 1.70669C272.948 1.70669 272.197 1.81834 271.479 2.0576C270.76 2.29686 270.154 2.59991 269.643 2.96677C269.116 3.34958 268.701 3.79619 268.382 4.3066C268.079 4.81702 267.919 5.35933 267.919 5.91759C267.919 6.52371 268.079 7.06602 268.382 7.57643C268.685 8.07089 269.116 8.5175 269.643 8.88436ZM271.623 4.25875C272.197 3.81214 272.916 3.57289 273.746 3.57289C274.576 3.57289 275.278 3.79619 275.869 4.25875C276.444 4.70536 276.747 5.26363 276.747 5.91759C276.747 6.57156 276.46 7.12982 275.869 7.57643C275.294 8.02304 274.576 8.24635 273.746 8.24635C272.916 8.24635 272.213 8.02304 271.623 7.57643C271.048 7.12982 270.745 6.57156 270.745 5.91759C270.745 5.26363 271.032 4.72131 271.623 4.25875Z" fill="#0A2961"/>
<path d="M273.905 20.1294V16.2853H270.968V20.1294C270.968 20.7833 271.127 21.2619 271.447 21.549C271.766 21.852 272.325 21.9956 273.107 21.9956H285V20.1134H273.905V20.1294Z" fill="#0A2961"/>
<path d="M19.7787 30.1143C19.1082 30.226 18.4058 30.2898 17.7034 30.2898C11.0944 30.2898 5.6987 24.9145 5.6987 18.311C5.6987 11.7076 11.0785 6.31635 17.7034 6.31635C18.4058 6.31635 19.1082 6.38015 19.7787 6.4918C17.879 5.47098 15.7239 4.89677 13.4251 4.89677C6.2734 4.89677 0.414718 10.5113 0.015625 17.5614C0.015625 17.673 0.015625 17.7687 0.015625 17.8804C0.015625 18.0239 0.015625 18.1675 0.015625 18.311C0.015625 18.4546 0.015625 18.5981 0.015625 18.7417C0.015625 18.8533 0.015625 18.949 0.015625 19.0607C0.414718 26.0948 6.2734 31.7093 13.4092 31.7093C15.7079 31.7093 17.879 31.1351 19.7627 30.1143H19.7787Z" fill="#0A2961"/>
<path d="M35.3915 18.7098C35.3915 18.5822 35.3915 18.4386 35.3915 18.311C35.3915 18.1834 35.3915 18.0399 35.3915 17.9123V17.8644C35.4713 15.743 36.1737 13.7652 37.2912 12.1063C39.2866 9.17147 42.655 7.24147 46.4703 7.24147C47.0929 7.24147 47.7155 7.28932 48.3061 7.40098C46.5022 6.38015 44.427 5.80594 42.208 5.80594C39.6857 5.80594 37.3391 6.55561 35.3755 7.84759C34.5614 8.37395 33.8111 8.99601 33.1566 9.69783C32.6777 8.85246 32.1349 8.03899 31.5283 7.28932C28.2876 3.22198 23.291 0.622066 17.7037 0.622066C14.9101 0.622066 12.2601 1.27603 9.89746 2.44041C11.0309 2.1852 12.2122 2.0576 13.4254 2.0576C20.0663 2.0576 25.7973 6.06115 28.3196 11.7714C29.0699 13.4781 29.5488 15.3283 29.6605 17.2743C29.6605 17.4019 29.6765 17.5295 29.6765 17.6571C29.6765 17.7368 29.6765 17.8325 29.6765 17.9123C29.6765 17.9761 29.6765 18.0558 29.6765 18.1196C29.6765 18.1834 29.6765 18.2472 29.6765 18.327C29.6765 18.4067 29.6765 18.4546 29.6765 18.5184C29.6765 18.5822 29.6765 18.6619 29.6765 18.7257C29.6765 18.8214 29.6765 18.9012 29.6765 18.9809C29.6765 19.1086 29.6765 19.2362 29.6605 19.3638C29.5488 21.3097 29.0699 23.1599 28.3196 24.8666C25.7973 30.5769 20.0663 34.5804 13.4254 34.5804C12.2122 34.5804 11.0309 34.4528 9.89746 34.1976C12.2601 35.362 14.9101 36.016 17.7037 36.016C23.291 36.016 28.2876 33.416 31.5283 29.3487C32.1349 28.599 32.6777 27.7856 33.1566 26.9402C34.5135 24.5157 35.3117 21.7404 35.3915 18.7736V18.7257V18.7098Z" fill="#F3B900"/>
<path d="M37.2906 24.5157C36.8117 26.0151 36.1732 27.4506 35.375 28.7745C37.3385 30.0665 39.6852 30.8161 42.2075 30.8161C44.4264 30.8161 46.5017 30.2419 48.3056 29.2211C47.699 29.3327 47.0924 29.3806 46.4698 29.3806C42.6544 29.3806 39.2861 27.4506 37.2906 24.5157Z" fill="#F3B900"/>
<path d="M46.4703 10.0966C44.7622 10.0966 43.1658 10.623 41.8408 11.5162C41.9685 11.5162 42.0803 11.5162 42.208 11.5162C45.9595 11.5162 49.0085 14.5627 49.0085 18.327C49.0085 22.0913 45.9595 25.1218 42.208 25.1218C42.0803 25.1218 41.9685 25.1218 41.8408 25.1218C43.1658 26.0151 44.7622 26.5414 46.4703 26.5414C51.004 26.5414 54.6916 22.8569 54.6916 18.327C54.6916 13.7971 51.004 10.1125 46.4703 10.1125V10.0966Z" fill="#0A2961"/>
<path d="M33.4919 5.19982C33.6834 5.24767 33.8909 5.27957 34.0825 5.29553C34.1144 5.29553 34.1464 5.29553 34.1783 5.29553C35.1042 5.29553 35.9183 4.81701 36.3972 4.09925C36.6686 3.68454 36.8283 3.19008 36.8283 2.64776C36.8283 1.18033 35.647 0 34.1783 0C32.7096 0 31.5283 1.18033 31.5283 2.64776C31.5283 2.83917 31.5443 3.03057 31.5922 3.20603C31.7997 4.16305 32.534 4.92867 33.4759 5.19982H33.4919Z" fill="#F3B900"/>
</g>
<defs>
<clipPath id="clip0_4566_29">
<rect width="285" height="36" fill="white"/>
</clipPath>
</defs>
</svg>
